<svg width="20" height="20" viewBox="0 0 20 20" fill="none" xmlns="http://www.w3.org/2000/svg">
<path d="M1.90839 6.48348V14.5918C1.90839 16.1751 3.03339 16.8251 4.40005 16.0418L6.35839 14.9251C6.78339 14.6835 7.49172 14.6585 7.93339 14.8835L12.3084 17.0751C12.7501 17.2918 13.4584 17.2751 13.8834 17.0335L17.4917 14.9668C17.9501 14.7001 18.3334 14.0501 18.3334 13.5168V5.40848C18.3334 3.82514 17.2084 3.17514 15.8417 3.95848L13.8834 5.07514C13.4584 5.31681 12.7501 5.34181 12.3084 5.11681L7.93339 2.93348C7.49172 2.71681 6.78339 2.73348 6.35839 2.97514L2.75005 5.04181C2.28339 5.30848 1.90839 5.95848 1.90839 6.48348Z" stroke="#5EBBFF" stroke-width="1.5" stroke-linecap="round" stroke-linejoin="round"/>
<path d="M7.13336 3.3335V14.1668" stroke="#5EBBFF" stroke-width="1.5" stroke-linecap="round" stroke-linejoin="round"/>
<path d="M13.1083 5.5166V16.6666" stroke="#5EBBFF" stroke-width="1.5" stroke-linecap="round" stroke-linejoin="round"/>
</svg>
