<svg width="20" height="20" viewBox="0 0 20 20" fill="none" xmlns="http://www.w3.org/2000/svg">
<path d="M17.5667 7.14987V12.8498C17.5667 13.7832 17.0667 14.6499 16.2583 15.1249L11.3083 17.9832C10.5 18.4499 9.49999 18.4499 8.68332 17.9832L3.73332 15.1249C2.92499 14.6582 2.42499 13.7915 2.42499 12.8498V7.14987C2.42499 6.21653 2.92499 5.34983 3.73332 4.87483L8.68332 2.0165C9.49166 1.54984 10.4917 1.54984 11.3083 2.0165L16.2583 4.87483C17.0667 5.34983 17.5667 6.2082 17.5667 7.14987Z" stroke="#5EBBFF" stroke-width="1.5" stroke-linecap="round" stroke-linejoin="round"/>
<path d="M10.0001 9.167C11.0725 9.167 11.9418 8.29767 11.9418 7.22532C11.9418 6.15297 11.0725 5.28369 10.0001 5.28369C8.92779 5.28369 8.05847 6.15297 8.05847 7.22532C8.05847 8.29767 8.92779 9.167 10.0001 9.167Z" stroke="#5EBBFF" stroke-width="1.5" stroke-linecap="round" stroke-linejoin="round"/>
<path d="M13.3334 13.8836C13.3334 12.3836 11.8417 11.167 10.0001 11.167C8.15841 11.167 6.66675 12.3836 6.66675 13.8836" stroke="#5EBBFF" stroke-width="1.5" stroke-linecap="round" stroke-linejoin="round"/>
</svg>
